<svg width="1280" height="720" viewBox="0 0 1280 720" fill="none" xmlns="http://www.w3.org/2000/svg">
<g clip-path="url(#clip0_32_1494)">
<path d="M1279 60C1279.33 60 1279.66 60 1280 60C1280 277.8 1280 495.6 1280 720C857.6 720 435.2 720 0 720C0 510.78 0 301.56 0 86C12.72 83.69 12.72 83.69 19.25 83.66C19.99 83.66 20.72 83.65 21.48 83.64C23.84 83.62 26.2001 83.62 28.5601 83.62C29.3801 83.63 30.19 83.63 31.03 83.63C52.33 83.68 72.4601 87.25 93.0601 92.52C94.5801 92.9 96.11 93.22 97.64 93.52C100.78 94.16 103.81 95.05 106.88 95.94C108.05 96.28 109.22 96.62 110.43 96.96C111.61 97.31 112.79 97.65 114 98C115.22 98.35 116.44 98.69 117.7 99.05C120.14 99.75 122.54 100.49 124.94 101.31C129.27 102.78 133.63 104.14 138 105.5C150.41 109.36 162.67 113.58 174.82 118.19C177.83 119.31 180.85 120.37 183.88 121.44C188.71 123.16 193.48 124.96 198.23 126.9C200.46 127.79 202.7 128.64 204.96 129.48C205.67 129.74 206.37 130 207.1 130.27C208.5 130.78 209.89 131.3 211.29 131.81C215.34 133.3 219.14 135.05 223 137C224.49 137.54 225.99 138.04 227.5 138.5C231.21 139.69 234.51 141.26 238 143C239.37 143.48 240.74 143.93 242.12 144.38C246.72 145.85 251.12 147.67 255.56 149.55C259.53 151.22 263.51 152.86 267.5 154.5C272.5 156.56 277.5 158.62 282.5 160.69C283.36 161.04 284.21 161.4 285.09 161.76C287.37 162.73 289.63 163.73 291.89 164.74C298.65 167.76 305.48 170.58 312.31 173.44C313.66 174 315.01 174.57 316.37 175.13C323.4 178.08 330.44 181.02 337.48 183.94C342.24 185.94 346.95 188.06 351.65 190.22C356.81 192.59 361.99 194.84 367.27 196.92C376.4 200.54 385.4 204.46 394.38 208.44C408.05 214.49 421.8 220.36 435.62 226.06C438.08 227.07 440.53 228.09 442.98 229.1C444.15 229.58 445.33 230.07 446.54 230.57C451.7 232.7 456.85 234.85 462 237C465.02 238.26 468.04 239.52 471.06 240.78C472.85 241.52 474.64 242.27 476.42 243.02C486.04 247.06 495.73 250.92 505.42 254.79C508.43 256 511.44 257.2 514.45 258.41C523.43 262 532.41 265.58 541.46 269.03C546.65 271.01 551.82 273.07 556.93 275.25C562.47 277.61 567.92 279.68 573.71 281.32C576.49 282.14 579.17 283.14 581.88 284.18C588.29 286.65 594.76 288.94 601.29 291.09C605.8 292.61 610.28 294.21 614.76 295.8C618.48 297.12 622.19 298.41 625.94 299.62C628.97 300.61 631.88 301.77 634.81 303C639.49 304.91 644.2 306.12 649.11 307.29C654.54 308.63 659.75 310.5 664.94 312.56C668.7 314 672.47 314.74 676.42 315.47C682.09 316.63 687.57 318.4 692.94 320.56C696.97 322.13 701.03 322.77 705.28 323.47C707.79 323.96 710.04 324.63 712.44 325.5C715.73 326.67 718.88 327.37 722.33 327.89C729.01 328.96 735.58 330.4 742.18 331.86C765.16 336.91 788.53 341.09 812 343C813.51 343.13 813.51 343.13 815.05 343.26C825.45 344.06 835.83 344.19 846.26 344.19C849.17 344.19 852.07 344.21 854.98 344.22C871.85 344.28 888.32 342.89 904.94 339.94C905.95 339.76 906.96 339.59 908.01 339.41C912.35 338.66 916.68 337.88 921 337C919.56 333.71 917.76 331.6 915.25 329.06C906.25 319.1 901.16 304.47 901.66 291.03C903.13 277.81 907.48 263.42 917.19 253.84C919.25 252.31 919.25 252.31 921.08 251.24C923.2 249.98 923.2 249.98 925.22 247.62C928.6 244.43 931.99 242.72 936.19 240.81C937.33 240.29 937.33 240.29 938.49 239.76C943.94 237.33 949.01 235.43 955 235C956.6 234.88 956.6 234.88 958.22 234.76C975.12 234.12 988.42 240.49 1001.25 251.12C1012.34 261.62 1019.53 276.01 1020.09 291.36C1020.17 296.67 1019.78 301.75 1019 307C1025.25 305.04 1031.23 302.72 1037.19 300C1038.05 299.61 1038.91 299.22 1039.8 298.81C1064.97 287.25 1089.33 273.98 1112 258C1112.69 257.51 1113.39 257.03 1114.1 256.53C1124.49 249.23 1134.49 241.55 1144.26 233.44C1146.71 231.41 1149.2 229.43 1151.69 227.44C1157.46 222.71 1162.9 217.64 1168.35 212.54C1169.96 211.04 1171.59 209.56 1173.22 208.09C1181.06 201.03 1188.3 193.54 1195.4 185.75C1196.86 184.16 1198.32 182.57 1199.79 180.99C1218.14 161.08 1234.39 138.88 1248.77 115.96C1249.54 114.73 1250.32 113.5 1251.11 112.27C1256.9 103.19 1261.86 93.68 1266.81 84.12C1267.14 83.49 1267.47 82.86 1267.8 82.22C1271.15 75.75 1274.44 69.28 1277.28 62.57C1278 61 1278 61 1279 60ZM44 85C48 86 48 86 48 86L44 85ZM903 291C903 293.64 903 296.28 903 299C903.33 299 903.66 299 904 299C904 296.36 904 293.72 904 291C903.67 291 903.34 291 903 291ZM820 345C820 345.33 820 345.66 820 346C822.31 346 824.62 346 827 346C827 345.67 827 345.34 827 345C824.69 345 822.38 345 820 345ZM872 345C872 345.33 872 345.66 872 346C873.98 346 875.96 346 878 346C878 345.67 878 345.34 878 345C876.02 345 874.04 345 872 345ZM842 346C842 346.33 842 346.66 842 347C847.28 347 852.56 347 858 347C858 346.67 858 346.34 858 346C852.72 346 847.44 346 842 346Z" fill="#71256E"/>
<path d="M1279 60C1279.33 60 1279.66 60 1280 60C1280 150.09 1280 240.18 1280 333C1257.72 333.99 1257.72 333.99 1235 335C1161.45 341.31 1089.49 362 1021 389C1020.29 389.28 1019.58 389.56 1018.84 389.85C972.79 407.96 927.96 428.76 883.8 451.07C879.84 453.07 875.88 455.06 871.91 457.04C866.21 459.88 860.53 462.75 854.89 465.7C853.79 466.27 852.68 466.83 851.55 467.42C849.3 468.58 847.05 469.76 844.81 470.95C843.72 471.5 842.64 472.06 841.52 472.63C840.55 473.14 839.58 473.64 838.59 474.16C836 475 836 475 833.78 474.33C831.03 472.28 829.71 469.64 828 466.69C821.01 454.72 813.3 448.93 800 445C788.02 442.25 776.21 444.77 765.56 450.81C754.35 458.23 748.08 468.89 745 482C744.17 490.77 744.86 498.32 748.12 506.51C749 509 749 509 749 513C675.4 542.62 598.37 564.87 519.44 574.25C518.17 574.4 516.9 574.55 515.59 574.71C511.4 575.18 507.2 575.6 503 576C502.11 576.09 501.23 576.17 500.31 576.26C482.37 577.99 464.52 578.35 446.52 578.32C443.48 578.31 440.44 578.32 437.4 578.34C420.8 578.43 404.35 578.12 387.82 576.61C386.78 576.51 386.78 576.51 385.72 576.42C378.37 575.73 371.12 575.02 364 573C362.05 570.64 362.05 570.64 360.88 567.81C356.51 558.73 351.52 554.5 342.04 550.95C332.3 547.92 323.7 549 314.38 553.18C311.01 554.96 308.45 556.48 305.94 559.38C304 561 304 561 300.61 560.82C295.02 559.99 289.73 558.2 284.38 556.44C283.28 556.08 282.18 555.72 281.05 555.35C251.95 545.79 222.45 534.62 196 519C195.24 518.55 194.48 518.11 193.69 517.65C169.06 502.91 144.64 487.38 122.93 468.52C120.06 466.05 117.14 463.68 114.19 461.31C110.16 458.04 106.48 454.59 102.87 450.88C101.11 449.11 99.28 447.49 97.38 445.88C88.92 438.59 80.91 430.49 73.7 421.98C71.56 419.49 69.34 417.1 67.12 414.69C62.68 409.8 58.4201 404.81 54.3101 399.64C53.3901 398.49 52.46 397.34 51.53 396.2C36.74 377.98 23.79 358.28 12 338C10.94 336.29 9.88006 334.58 8.81006 332.88C7.87006 331.25 6.93001 329.63 6.00001 328C5.23001 326.75 5.22995 326.75 4.43995 325.47C-1.40005 314.8 -0.810049 304.37 -0.680049 292.5C-0.680049 290.24 -0.680049 287.99 -0.680049 285.73C-0.690049 279.63 -0.64998 273.54 -0.60998 267.44C-0.56998 261.06 -0.570054 254.67 -0.560054 248.29C-0.540054 237.59 -0.509946 226.88 -0.449946 216.18C-0.399946 205.16 -0.359951 194.14 -0.329951 183.13C-0.329951 182.44 -0.329941 181.76 -0.319941 181.06C-0.319941 177.65 -0.310044 174.23 -0.300044 170.82C-0.240044 142.55 -0.129995 114.27 5.06639e-06 86C1.74001 85.67 3.49 85.34 5.24 85.02C6.21 84.84 7.18006 84.65 8.18006 84.47C11.8901 83.85 15.5 83.68 19.25 83.66C19.99 83.66 20.72 83.65 21.48 83.64C23.84 83.62 26.2001 83.62 28.5601 83.62C29.3801 83.63 30.19 83.63 31.03 83.63C52.33 83.68 72.4601 87.25 93.0601 92.52C94.5801 92.9 96.11 93.22 97.64 93.52C100.78 94.16 103.81 95.05 106.88 95.94C108.05 96.28 109.22 96.62 110.43 96.96C111.61 97.31 112.79 97.65 114 98C115.22 98.35 116.44 98.69 117.7 99.05C120.14 99.75 122.54 100.49 124.94 101.31C129.27 102.78 133.63 104.14 138 105.5C150.41 109.36 162.67 113.58 174.82 118.19C177.83 119.31 180.85 120.37 183.88 121.44C188.71 123.16 193.48 124.96 198.23 126.9C200.46 127.79 202.7 128.64 204.96 129.48C205.67 129.74 206.37 130 207.1 130.27C208.5 130.78 209.89 131.3 211.29 131.81C215.34 133.3 219.14 135.05 223 137C224.49 137.54 225.99 138.04 227.5 138.5C231.21 139.69 234.51 141.26 238 143C239.37 143.48 240.74 143.93 242.12 144.38C246.72 145.85 251.12 147.67 255.56 149.55C259.53 151.22 263.51 152.86 267.5 154.5C272.5 156.56 277.5 158.62 282.5 160.69C283.36 161.04 284.21 161.4 285.09 161.76C287.37 162.73 289.63 163.73 291.89 164.74C298.65 167.76 305.48 170.58 312.31 173.44C313.66 174 315.01 174.57 316.37 175.13C323.4 178.08 330.44 181.02 337.48 183.94C342.24 185.94 346.95 188.06 351.65 190.22C356.81 192.59 361.99 194.84 367.27 196.92C376.4 200.54 385.4 204.46 394.38 208.44C408.05 214.49 421.8 220.36 435.62 226.06C438.08 227.07 440.53 228.09 442.98 229.1C444.15 229.58 445.33 230.07 446.54 230.57C451.7 232.7 456.85 234.85 462 237C465.02 238.26 468.04 239.52 471.06 240.78C472.85 241.52 474.64 242.27 476.42 243.02C486.04 247.06 495.73 250.92 505.42 254.79C508.43 256 511.44 257.2 514.45 258.41C523.43 262 532.41 265.58 541.46 269.03C546.65 271.01 551.82 273.07 556.93 275.25C562.47 277.61 567.92 279.68 573.71 281.32C576.49 282.14 579.17 283.14 581.88 284.18C588.29 286.65 594.76 288.94 601.29 291.09C605.8 292.61 610.28 294.21 614.76 295.8C618.48 297.12 622.19 298.41 625.94 299.62C628.97 300.61 631.88 301.77 634.81 303C639.49 304.91 644.2 306.12 649.11 307.29C654.54 308.63 659.75 310.5 664.94 312.56C668.7 314 672.47 314.74 676.42 315.47C682.09 316.63 687.57 318.4 692.94 320.56C696.97 322.13 701.03 322.77 705.28 323.47C707.79 323.96 710.04 324.63 712.44 325.5C715.73 326.67 718.88 327.37 722.33 327.89C729.01 328.96 735.58 330.4 742.18 331.86C765.16 336.91 788.53 341.09 812 343C813.51 343.13 813.51 343.13 815.05 343.26C825.45 344.06 835.83 344.19 846.26 344.19C849.17 344.19 852.07 344.21 854.98 344.22C871.85 344.28 888.32 342.89 904.94 339.94C905.95 339.76 906.96 339.59 908.01 339.41C912.35 338.66 916.68 337.88 921 337C919.56 333.71 917.76 331.6 915.25 329.06C906.25 319.1 901.16 304.47 901.66 291.03C903.13 277.81 907.48 263.42 917.19 253.84C919.25 252.31 919.25 252.31 921.08 251.24C923.2 249.98 923.2 249.98 925.22 247.62C928.6 244.43 931.99 242.72 936.19 240.81C937.33 240.29 937.33 240.29 938.49 239.76C943.94 237.33 949.01 235.43 955 235C956.6 234.88 956.6 234.88 958.22 234.76C975.12 234.12 988.42 240.49 1001.25 251.12C1012.34 261.62 1019.53 276.01 1020.09 291.36C1020.17 296.67 1019.78 301.75 1019 307C1025.25 305.04 1031.23 302.72 1037.19 300C1038.05 299.61 1038.91 299.22 1039.8 298.81C1064.97 287.25 1089.33 273.98 1112 258C1112.69 257.51 1113.39 257.03 1114.1 256.53C1124.49 249.23 1134.49 241.55 1144.26 233.44C1146.71 231.41 1149.2 229.43 1151.69 227.44C1157.46 222.71 1162.9 217.64 1168.35 212.54C1169.96 211.04 1171.59 209.56 1173.22 208.09C1181.06 201.03 1188.3 193.54 1195.4 185.75C1196.86 184.16 1198.32 182.57 1199.79 180.99C1218.14 161.08 1234.39 138.88 1248.77 115.96C1249.54 114.73 1250.32 113.5 1251.11 112.27C1256.9 103.19 1261.86 93.68 1266.81 84.12C1267.14 83.49 1267.47 82.86 1267.8 82.22C1271.15 75.75 1274.44 69.28 1277.28 62.57C1278 61 1278 61 1279 60ZM44 85C48 86 48 86 48 86L44 85ZM903 291C903 293.64 903 296.28 903 299C903.33 299 903.66 299 904 299C904 296.36 904 293.72 904 291C903.67 291 903.34 291 903 291ZM820 345C820 345.33 820 345.66 820 346C822.31 346 824.62 346 827 346C827 345.67 827 345.34 827 345C824.69 345 822.38 345 820 345ZM872 345C872 345.33 872 345.66 872 346C873.98 346 875.96 346 878 346C878 345.67 878 345.34 878 345C876.02 345 874.04 345 872 345ZM842 346C842 346.33 842 346.66 842 347C847.28 347 852.56 347 858 347C858 346.67 858 346.34 858 346C852.72 346 847.44 346 842 346Z" fill="#EEDCF3"/>
<path d="M0 359C4.49 364.61 4.49 364.61 6.16 367.98C6.72 369.09 6.72 369.09 7.29 370.23C7.69 371.02 8.09 371.81 8.5 372.62C13.76 382.82 19.71 392.42 26 402C26.69 403.05 27.37 404.1 28.08 405.18C40.66 424.34 53.6 443.15 68 461C68.76 461.94 69.52 462.88 70.3 463.85C78.52 473.97 86.91 483.91 95.73 493.51C97.73 495.7 99.69 497.93 101.62 500.19C104.61 503.62 107.79 506.81 111.03 510C112.94 511.94 114.73 513.94 116.5 516C121.91 522.27 127.79 527.89 134.07 533.29C135.95 534.96 137.73 536.7 139.5 538.5C143.16 542.21 147.04 545.61 151 549C152.02 549.88 153.04 550.77 154.06 551.65C167.83 563.57 181.9 574.9 196.77 585.42C198.94 586.96 201.09 588.51 203.25 590.06C282.46 646.99 378.63 682.86 476 690C477.17 690.09 478.34 690.18 479.54 690.27C492.97 691.18 506.42 691.19 519.88 691.19C523.83 691.19 527.78 691.21 531.73 691.22C618.88 691.42 705.45 671.13 847.03 615.42C924.02 580.87 1006.69 557.81 1091.48 557.81C1094.9 557.81 1098.32 557.79 1101.74 557.78C1162.23 557.62 1225.57 569.78 1280 597C1280 637.59 1280 678.18 1280 720C857.6 720 435.2 720 0 720C0 600.87 0 481.74 0 359Z" fill="#A437AA"/>
<path d="M958.222 234.758C975.122 234.118 988.423 240.488 1001.25 251.128C1012.33 261.618 1019.52 275.988 1020.08 291.328C1020.21 299.338 1020.31 306.098 1016 312.998C1015.11 314.888 1014.24 316.788 1013.37 318.688C1010.17 325.138 1006.1 329.968 1001 334.998C1000.36 335.648 999.723 336.298 999.062 336.968C986.573 348.838 972.062 350.608 955.653 350.308C943.162 349.808 934.112 344.808 924.002 337.998C922.512 337.008 922.512 337.008 921.002 335.998C909.842 324.718 902.262 309.738 901.562 293.748C902.082 279.788 907.042 263.858 917.182 253.838C919.252 252.308 919.253 252.308 921.083 251.238C923.193 249.988 923.192 249.988 925.222 247.618C928.603 244.438 931.992 242.718 936.182 240.808C936.952 240.468 937.713 240.118 938.493 239.758C945.132 236.798 950.972 235.298 958.222 234.758ZM903.002 290.998C903.002 293.638 903.002 296.278 903.002 298.998C903.332 298.998 903.662 298.998 904.002 298.998C904.002 296.358 904.002 293.718 904.002 290.998C903.672 290.998 903.342 290.998 903.002 290.998Z" fill="#71256E"/>
<path d="M501.758 366.109C513.498 376.269 522.798 390.189 523.998 405.999C525.108 422.119 521.788 436.309 511.158 448.679C501.968 458.919 490.648 467.169 476.508 468.179C456.558 468.649 440.758 465.709 425.548 451.669C415.508 440.849 410.268 426.809 409.938 412.109C410.658 395.679 418.188 380.289 429.998 368.999C450.648 352.299 480.148 349.579 501.758 366.109Z" fill="#A437AA"/>
<path d="M254.641 339.582C265.821 351.682 269.871 365.472 269.341 381.552C268.491 395.832 261.471 406.302 251.381 415.962C239.771 425.912 226.991 428.092 212.141 427.202C199.421 426.022 187.241 418.842 178.501 409.692C169.411 398.412 164.961 384.772 166.501 370.312C169.111 355.062 176.431 342.152 189.001 333.002C211.261 320.632 235.701 321.322 254.641 339.582Z" fill="#71256E"/>
<path d="M813.563 449.5C814.723 450.32 815.873 451.15 817.003 452C818.273 452.84 818.273 452.84 819.563 453.69C829.603 463.21 835.863 476.44 836.373 490.19C836.123 502.84 831.393 513.93 822.933 523.29C817.593 528.39 811.863 531.39 805.003 534C803.903 534.43 802.813 534.87 801.683 535.31C787.373 537.98 774.433 535.07 762.443 526.93C758.753 524.02 755.863 520.71 753.003 517C752.003 515.86 752.003 515.86 750.983 514.69C744.173 505.45 742.703 493.1 744.003 482C746.503 470.33 752.523 459.41 762.003 452C778.223 441.99 796.613 439.15 813.563 449.5Z" fill="#A337A9"/>
<path d="M907.539 627.543C917.249 634.643 922.969 644.143 924.999 656.003C925.789 664.853 923.429 674.093 918.249 681.373C917.199 682.613 916.119 683.823 914.999 685.003C914.139 685.923 914.139 685.923 913.259 686.863C905.689 694.193 896.929 697.473 886.499 697.623C875.139 697.433 866.429 693.503 858.199 685.613C849.559 675.343 847.899 663.913 848.999 651.003C850.939 641.923 856.749 634.043 864.249 628.683C878.029 620.333 893.399 618.953 907.539 627.543Z" fill="#71256E"/>
<path d="M353.363 555.793C357.993 560.163 361.473 565.143 364.003 571.003C364.003 571.663 364.003 572.323 364.003 573.003C364.663 573.003 365.323 573.003 366.003 573.003C368.423 583.193 368.403 594.833 363.003 604.003C357.363 612.963 349.983 618.863 339.663 621.523C328.943 623.433 320.183 621.453 310.753 616.183C302.933 609.973 298.183 603.563 295.003 594.003C294.243 582.303 294.483 572.583 302.003 563.003C301.343 562.343 300.683 561.683 300.003 561.003C300.703 560.773 301.403 560.543 302.123 560.313C305.133 559.113 305.133 559.113 307.563 556.683C320.493 545.373 339.963 545.623 353.363 555.793Z" fill="#A336A9"/>
<path d="M963.563 254.75C968.713 259.5 968.713 259.5 969.473 263.45C969.573 272.47 966.903 279.13 960.813 285.81C954.963 291.24 947.563 294.66 939.623 295.25C934.143 294.87 931.233 293.07 927.123 289.5C924.363 285.87 924.293 282.31 924.523 277.87C925.883 269.62 930.233 263.89 936.623 258.7C944.693 252.94 954.213 250.16 963.563 254.75Z" fill="#A437AA"/>
<path d="M473.195 373.68C476.275 375.94 477.965 378.32 478.995 382C479.435 388.2 477.565 393.96 473.995 399C468.395 405.09 460.745 410.49 452.295 411.24C446.025 411.39 441.845 411.47 436.995 407C434.075 404.18 433.235 401.25 432.875 397.21C433.245 390.52 437.385 384.65 441.805 379.86C450.535 372.47 462.605 367.79 473.195 373.68Z" fill="#71256E"/>
<path d="M214 381C219.91 384.68 224.45 388.45 227 395C227.72 399.82 227.75 403.59 225.44 407.94C221.52 411.25 217.82 412.75 212.75 413.44C204.33 412.46 195.91 409.25 190 403C186.9 398.59 184.53 394.19 184.88 388.69C186.42 383.63 188.73 381.32 193.25 378.69C200.45 376.89 207.34 377.76 214 381Z" fill="#A437AA"/>
<path d="M805.5 459.125C810.28 461.855 813.51 465.025 816 470.005C816.08 473.095 815.78 476.005 815 479.005C812.69 481.435 812.69 481.435 810 483.005C809.41 483.355 808.82 483.705 808.22 484.075C802.2 486.585 794.12 485.835 788.12 483.505C783.38 481.005 779.72 477.635 777 473.005C775.98 469.475 776.16 466.545 777.96 463.235C784.38 454.785 796.53 454.945 805.5 459.125Z" fill="#71256E"/>
<path d="M890.5 635.875C893 637.995 893 637.995 894 639.995C894.23 644.875 893.54 648.925 890.5 652.815C885.95 657.495 880.29 660.145 873.75 660.435C868.9 659.875 866.4 658.405 863 654.995C862.05 650.965 862.2 647.395 864.29 643.765C870.99 635.625 880.45 630.485 890.5 635.875Z" fill="#A437AA"/>
<path d="M342 561C347.68 563.59 352.4 567.23 355 573C355.72 577.32 355.78 580.69 353.5 584.5C350.04 586.58 346.98 587.28 343 587C336.24 585.26 331.92 581.68 328 576C326.38 572.76 326.44 569.5 327 566C330.68 560.11 335.61 559.66 342 561Z" fill="#71256E"/>
<path d="M24 83C26.97 83 29.94 83 33 83C33 83.33 33 83.66 33 84C30.03 84 27.06 84 24 84C24 83.67 24 83.34 24 83Z" fill="#EFDDF4"/>
</g>
<defs>
<clipPath id="clip0_32_1494">
<rect width="1280" height="720" fill="white"/>
</clipPath>
</defs>
</svg>
